<svg width="25" height="26" viewBox="0 0 25 26" fill="none" xmlns="http://www.w3.org/2000/svg">
<rect x="1" y="1.5" width="23" height="23" rx="2" fill="black"/>
<path d="M12.5019 8.64141C10.0898 8.64141 8.14428 10.5874 8.14428 13C8.14428 15.4126 10.0898 17.3586 12.5019 17.3586C14.9139 17.3586 16.8595 15.4126 16.8595 13C16.8595 10.5874 14.9139 8.64141 12.5019 8.64141ZM12.5019 15.8336C10.9432 15.8336 9.66888 14.5629 9.66888 13C9.66888 11.4371 10.9394 10.1664 12.5019 10.1664C14.0644 10.1664 15.3349 11.4371 15.3349 13C15.3349 14.5629 14.0606 15.8336 12.5019 15.8336ZM18.0542 8.46313C18.0542 9.02834 17.5991 9.47975 17.0378 9.47975C16.4727 9.47975 16.0214 9.02455 16.0214 8.46313C16.0214 7.90171 16.4765 7.4465 17.0378 7.4465C17.5991 7.4465 18.0542 7.90171 18.0542 8.46313ZM20.9403 9.49492C20.8758 8.1331 20.5648 6.92681 19.5674 5.93295C18.5737 4.93908 17.3677 4.62803 16.0062 4.55975C14.603 4.48008 10.397 4.48008 8.99381 4.55975C7.63609 4.62423 6.43006 4.93529 5.43263 5.92915C4.43519 6.92302 4.128 8.12931 4.05973 9.49113C3.98009 10.8947 3.98009 15.1015 4.05973 16.5051C4.12421 17.8669 4.43519 19.0732 5.43263 20.0671C6.43006 21.0609 7.63229 21.372 8.99381 21.4403C10.397 21.5199 14.603 21.5199 16.0062 21.4403C17.3677 21.3758 18.5737 21.0647 19.5674 20.0671C20.561 19.0732 20.872 17.8669 20.9403 16.5051C21.0199 15.1015 21.0199 10.8985 20.9403 9.49492ZM19.1274 18.011C18.8316 18.7545 18.259 19.3273 17.5118 19.627C16.393 20.0708 13.7383 19.9684 12.5019 19.9684C11.2655 19.9684 8.60697 20.0671 7.49197 19.627C6.74863 19.3311 6.17596 18.7583 5.87635 18.011C5.43263 16.892 5.53503 14.2366 5.53503 13C5.53503 11.7634 5.43642 9.10421 5.87635 7.98895C6.17217 7.24545 6.74484 6.67265 7.49197 6.37298C8.61076 5.92915 11.2655 6.03157 12.5019 6.03157C13.7383 6.03157 16.3968 5.93295 17.5118 6.37298C18.2552 6.66886 18.8278 7.24166 19.1274 7.98895C19.5712 9.108 19.4688 11.7634 19.4688 13C19.4688 14.2366 19.5712 16.8958 19.1274 18.011Z" fill="white"/>
</svg>
