<svg width="25" height="25" viewBox="0 0 25 25" fill="none" xmlns="http://www.w3.org/2000/svg">
<path fill-rule="evenodd" clip-rule="evenodd" d="M3 1C1.89543 1 1 1.89543 1 3V22C1 23.1046 1.89543 24 3 24H22C23.1046 24 24 23.1046 24 22V3C24 1.89543 23.1046 1 22 1H3ZM8.14428 12.5C8.14428 10.0874 10.0898 8.14141 12.5019 8.14141C14.9139 8.14141 16.8595 10.0874 16.8595 12.5C16.8595 14.9126 14.9139 16.8586 12.5019 16.8586C10.0898 16.8586 8.14428 14.9126 8.14428 12.5ZM9.66888 12.5C9.66888 14.0629 10.9432 15.3336 12.5019 15.3336C14.0606 15.3336 15.3349 14.0629 15.3349 12.5C15.3349 10.9371 14.0644 9.66635 12.5019 9.66635C10.9394 9.66635 9.66888 10.9371 9.66888 12.5ZM17.0378 8.97975C17.5991 8.97975 18.0542 8.52834 18.0542 7.96313C18.0542 7.40171 17.5991 6.9465 17.0378 6.9465C16.4765 6.9465 16.0214 7.40171 16.0214 7.96313C16.0214 8.52455 16.4727 8.97975 17.0378 8.97975ZM19.5674 5.43295C20.5648 6.42681 20.8758 7.6331 20.9403 8.99492C21.0199 10.3985 21.0199 14.6015 20.9403 16.0051C20.872 17.3669 20.561 18.5732 19.5674 19.5671C18.5737 20.5647 17.3677 20.8758 16.0062 20.9403C14.603 21.0199 10.397 21.0199 8.99381 20.9403C7.63229 20.872 6.43006 20.5609 5.43263 19.5671C4.43519 18.5732 4.12421 17.3669 4.05973 16.0051C3.98009 14.6015 3.98009 10.3947 4.05973 8.99113C4.128 7.62931 4.43519 6.42302 5.43263 5.42915C6.43006 4.43529 7.63609 4.12423 8.99381 4.05975C10.397 3.98008 14.603 3.98008 16.0062 4.05975C17.3677 4.12803 18.5737 4.43908 19.5674 5.43295ZM17.5118 19.127C18.259 18.8273 18.8316 18.2545 19.1274 17.511C19.508 16.5545 19.4868 14.4621 19.4731 13.1057C19.4708 12.8807 19.4688 12.6759 19.4688 12.5C19.4688 12.324 19.4708 12.1193 19.4731 11.8944C19.4869 10.5387 19.508 8.44876 19.1274 7.48895C18.8278 6.74166 18.2552 6.16886 17.5118 5.87298C16.5525 5.49437 14.4504 5.51454 13.0947 5.52754C12.8748 5.52965 12.6745 5.53157 12.5019 5.53157C12.326 5.53157 12.1213 5.5295 11.8964 5.52722C10.5411 5.51349 8.45156 5.49231 7.49197 5.87298C6.74484 6.17265 6.17217 6.74545 5.87635 7.48895C5.49783 8.44854 5.51799 10.5511 5.53099 11.9071C5.5331 12.1271 5.53503 12.3274 5.53503 12.5C5.53503 12.676 5.53295 12.8807 5.53067 13.1056C5.51694 14.4613 5.49577 16.5512 5.87635 17.511C6.17596 18.2583 6.74863 18.8311 7.49197 19.127C8.45133 19.5056 10.5534 19.4855 11.9091 19.4725C12.129 19.4703 12.3293 19.4684 12.5019 19.4684C12.6778 19.4684 12.8825 19.4705 13.1074 19.4728C14.4627 19.4865 16.5522 19.5077 17.5118 19.127Z" fill="white"/>
</svg>
